<?xml version="1.0" encoding="utf-8"?>
<!-- Generator: Adobe Illustrator 16.0.0, SVG Export Plug-In . SVG Version: 6.00 Build 0)  -->
<!DOCTYPE svg PUBLIC "-//W3C//DTD SVG 1.1//EN" "http://www.w3.org/Graphics/SVG/1.1/DTD/svg11.dtd">
<svg version="1.1" id="Layer_1" xmlns="http://www.w3.org/2000/svg" xmlns:xlink="http://www.w3.org/1999/xlink" x="0px" y="0px"
	 width="612px" height="792px" viewBox="0 0 612 792" enable-background="new 0 0 612 792" xml:space="preserve">
<defs>
	<filter id="Adobe_OpacityMaskFilter" filterUnits="userSpaceOnUse" x="163.8887" y="253.6523" width="285" height="285">
		<feFlood  style="flood-color:white;flood-opacity:1" result="back"/>
		<feBlend  in="SourceGraphic" in2="back" mode="normal"/>
	</filter>
</defs>
<mask maskUnits="userSpaceOnUse" x="163.8887" y="253.6523" width="285" height="285" id="SVGID_1_">
	<g filter="url(#Adobe_OpacityMaskFilter)">
		<polyline points="306.3887,242.8789 272.3311,362.1025 153.1074,396.1602 272.3311,430.2168 306.3887,549.4258 340.4473,430.2188 
			459.6699,396.1602 340.4473,362.1025 306.3887,242.8789 		"/>
	</g>
</mask>
<path mask="url(#SVGID_1_)" fill="#F15C22" d="M306.3877,538.6523c-78.5742,0-142.499-63.9238-142.499-142.5
	c0-78.5747,63.9248-142.5,142.499-142.5c78.5762,0,142.501,63.9253,142.501,142.5
	C448.8887,474.7285,384.9639,538.6523,306.3877,538.6523z M306.3877,273.6523c-67.5454,0-122.499,54.9536-122.499,122.5
	c0,67.5479,54.9536,122.5,122.499,122.5c67.5488,0,122.501-54.9521,122.501-122.5
	C428.8887,328.606,373.9365,273.6523,306.3877,273.6523z"/>
<defs>
	<filter id="Adobe_OpacityMaskFilter_1_" filterUnits="userSpaceOnUse" x="193.8887" y="283.6523" width="225" height="225">
		<feFlood  style="flood-color:white;flood-opacity:1" result="back"/>
		<feBlend  in="SourceGraphic" in2="back" mode="normal"/>
	</filter>
</defs>
<mask maskUnits="userSpaceOnUse" x="193.8887" y="283.6523" width="225" height="225" id="SVGID_2_">
	<g filter="url(#Adobe_OpacityMaskFilter_1_)">
		<polyline points="306.3887,242.8789 272.3311,362.103 153.1074,396.1602 272.3311,430.2168 306.3887,549.4258 340.4473,430.2188 
			459.6699,396.1602 340.4473,362.103 306.3887,242.8789 		"/>
	</g>
</mask>
<path mask="url(#SVGID_2_)" fill="#F15C22" d="M306.3867,508.6523c-62.0317,0-112.498-50.4668-112.498-112.5
	c0-62.0327,50.4663-112.5,112.498-112.5c62.0342,0,112.502,50.4673,112.502,112.5
	C418.8887,458.1855,368.4209,508.6523,306.3867,508.6523z M306.3867,301.1523c-52.3818,0-94.998,42.6167-94.998,95
	c0,52.3818,42.6162,95,94.998,95c52.3828,0,95.002-42.6182,95.002-95C401.3887,343.769,358.7695,301.1523,306.3867,301.1523z"/>
<defs>
	<filter id="Adobe_OpacityMaskFilter_2_" filterUnits="userSpaceOnUse" x="221.3887" y="253.6519" width="170" height="227.5005">
		<feFlood  style="flood-color:white;flood-opacity:1" result="back"/>
		<feBlend  in="SourceGraphic" in2="back" mode="normal"/>
	</filter>
</defs>
<mask maskUnits="userSpaceOnUse" x="221.3887" y="253.6519" width="170" height="227.5005" id="SVGID_3_">
	<g filter="url(#Adobe_OpacityMaskFilter_2_)">
		<polyline points="306.3887,242.8789 272.3311,362.1035 153.1074,396.1602 272.3311,430.2168 306.3887,549.4258 340.4473,430.2188 
			459.6699,396.1602 340.4473,362.1035 306.3887,242.8789 		"/>
	</g>
</mask>
<path mask="url(#SVGID_3_)" fill="#0D3549" d="M361.3838,264.6914c-16.9307-7.1094-35.5127-11.0396-54.9961-11.0396
	c-19.4844,0-38.0684,3.9312-55,11.0415l0.001,0.002v66.6494h-0.0029c-18.3521,15.5918-29.9971,38.8398-29.9971,64.8076
	c0,46.9463,38.0562,85,84.999,85c46.9473,0,85.001-38.0537,85.001-85c0-25.9707-11.6465-49.2212-30.002-64.812l0.002-66.645"/>
<polygon fill="#0D3549" points="306.3887,531.2236 306.3887,396.1592 276.375,426.1709 "/>
<polygon fill="#0D3549" points="336.4023,426.1709 306.3887,396.1592 441.4668,396.1592 "/>
<polyline fill="#0D3549" points="306.3887,396.1592 336.4023,366.1465 306.3887,261.0811 "/>
<polygon fill="#0D3549" points="306.3887,396.1592 276.375,366.1465 171.3105,396.1592 "/>
<path fill="#1A3865" d="M251.3843,264.6953"/>
<path fill="#1A3865" d="M361.3906,264.6953"/>
<path fill="#9F1D20" d="M251.3843,264.6953"/>
<polygon fill="none" points="171.3105,396.1592 276.375,366.1465 306.3887,261.0811 336.4023,366.1465 441.4668,396.1592 
	336.4023,426.1729 306.3887,531.2236 276.375,426.1709 "/>
<path fill="#1A3865" d="M361.3906,264.6953"/>
</svg>
