<?xml version="1.0" encoding="utf-8"?>
<!-- Generator: Adobe Illustrator 16.0.0, SVG Export Plug-In . SVG Version: 6.00 Build 0)  -->
<!DOCTYPE svg PUBLIC "-//W3C//DTD SVG 1.1//EN" "http://www.w3.org/Graphics/SVG/1.1/DTD/svg11.dtd">
<svg version="1.1" id="Layer_1" xmlns="http://www.w3.org/2000/svg" xmlns:xlink="http://www.w3.org/1999/xlink" x="0px" y="0px"
	 width="612px" height="792px" viewBox="0 0 612 792" enable-background="new 0 0 612 792" xml:space="preserve">
<path fill="none" stroke="#1A3865" stroke-width="10" stroke-miterlimit="10" d="M440.3887,372.1523
	c0,63.5146-51.4863,115-115.002,115c-63.5098,0-114.998-51.4854-114.998-115c0-63.5127,51.4883-115,114.998-115
	C388.9023,257.1523,440.3887,308.6396,440.3887,372.1523z"/>
<circle fill="none" stroke="#1A3865" stroke-width="10" stroke-miterlimit="10" cx="325.3887" cy="372.1528" r="137.5"/>
<path fill="#1A3865" d="M325.3887,331.043h-72.9023v-80.0308c0,0,28.0127-21.2759,72.9023-21.2759
	c44.8887,0,72.9023,21.2759,72.9023,21.2759v80.0308H325.3887z"/>
<circle fill="#1A3865" cx="325.3887" cy="372.1523" r="95"/>
<polygon fill="none" stroke="#FFFFFF" stroke-width="8" stroke-miterlimit="10" points="294.4111,403.1348 325.3887,511.5576 
	356.3652,403.1367 464.8008,372.1602 356.3652,341.1846 325.3887,232.7471 294.4111,341.1846 185.9766,372.1602 "/>
<polygon fill="#FFFFFF" points="295.375,342.1465 325.3887,237.0811 325.3887,372.1592 "/>
<polygon fill="#FFFFFF" points="295.375,402.1709 325.3887,372.1592 190.3105,372.1592 "/>
<polygon fill="#1A3865" points="325.3887,507.2236 325.3887,372.1592 295.375,402.1709 "/>
<polygon fill="#FFFFFF" points="355.4023,402.1729 325.3887,372.1592 325.3887,507.2236 "/>
<polygon fill="#1A3865" points="355.4023,402.1709 325.3887,372.1592 460.4668,372.1592 "/>
<polyline fill="#1A3865" points="325.3887,372.1592 355.4023,342.1465 325.3887,237.0811 "/>
<polygon fill="#FFFFFF" points="460.4668,372.1592 325.3887,372.1592 355.4023,342.1455 "/>
<polygon fill="#1A3865" points="325.3887,372.1592 295.375,342.1465 190.3105,372.1592 "/>
</svg>
